<svg version="1.1" xmlns="http://www.w3.org/2000/svg" viewBox="0 0 217.6190185546875 207.14285278320312" width="217.6190185546875" height="207.14285278320312" filter="invert(93%) hue-rotate(180deg)" class="excalidraw-svg">
  <!-- svg-source:excalidraw -->
  
  <defs>
    <style class="style-fonts">
      
    </style>
    
  </defs>
  <rect x="0" y="0" width="217.6190185546875" height="207.14285278320312" fill="#ffffff"></rect><g stroke-linecap="round" transform="translate(10 10) rotate(0 98.80950927734375 93.57142639160156)"><path d="M32 0 C72.68 -0.58, 115.26 0.57, 165.62 0 M32 0 C81.8 1.02, 129.51 1.07, 165.62 0 M165.62 0 C188.36 1.8, 198.84 11.35, 197.62 32 M165.62 0 C184.65 -1.36, 198.44 10.87, 197.62 32 M197.62 32 C195.43 71.31, 196.77 113.44, 197.62 155.14 M197.62 32 C196.95 75.34, 197.49 118.76, 197.62 155.14 M197.62 155.14 C197.61 177.51, 187.06 186.81, 165.62 187.14 M197.62 155.14 C199.53 176.33, 185.42 185.12, 165.62 187.14 M165.62 187.14 C138.27 188.13, 110.51 188.26, 32 187.14 M165.62 187.14 C126.01 187.77, 87.84 187.18, 32 187.14 M32 187.14 C9.99 186.46, -0.05 178.38, 0 155.14 M32 187.14 C12.01 186.7, 0.34 175.73, 0 155.14 M0 155.14 C-2.18 126.88, 0.46 104.58, 0 32 M0 155.14 C-1.12 119.54, -0.87 85.49, 0 32 M0 32 C0.38 10.29, 9.61 1.81, 32 0 M0 32 C0.81 9.62, 11.24 -1.77, 32 0" stroke="#1e1e1e" stroke-width="2" fill="none"></path></g></svg>